<svg height="512pt" viewBox="-101 0 512 512" width="512pt" xmlns="http://www.w3.org/2000/svg"><path d="m155.160156 382.867188c46.917969 0 85.089844-38.171876 85.089844-85.089844 0-46.917969-38.171875-85.089844-85.089844-85.089844-46.917968 0-85.085937 38.171875-85.085937 85.089844 0 46.917968 38.167969 85.089844 85.085937 85.089844zm0-140.148438c30.359375 0 55.058594 24.699219 55.058594 55.058594s-24.699219 55.058594-55.058594 55.058594c-30.355468 0-55.054687-24.699219-55.054687-55.058594s24.699219-55.058594 55.054687-55.058594zm0 0"/><path d="m159.453125 327.175781c2.96875 3.710938 7.332031 5.640625 11.734375 5.640625 3.292969 0 6.605469-1.078125 9.371094-3.292968 6.476562-5.179688 7.527344-14.628907 2.347656-21.105469l-12.726562-15.910157v-18.753906c0-8.292968-6.722657-15.015625-15.015626-15.015625-8.292968 0-15.015624 6.722657-15.015624 15.015625v24.023438c0 3.410156 1.160156 6.71875 3.289062 9.378906zm0 0"/><path d="m310.324219 125.597656c0-8.292968-6.722657-15.015625-15.015625-15.015625-8.292969 0-15.015625 6.722657-15.015625 15.015625v27.027344h-30.03125v-32.488281c0-11.296875-3.410157-22.167969-9.863281-31.441407l-48.257813-69.375c-8.417969-12.097656-22.242187-19.320312-36.980469-19.320312-14.738281 0-28.558594 7.222656-36.976562 19.320312l-48.261719 69.375c-6.449219 9.273438-9.859375 20.144532-9.859375 31.441407v32.488281h-30.03125v-27.027344c0-8.292968-6.722656-15.015625-15.015625-15.015625s-15.015625 6.722657-15.015625 15.015625v302.316406c0 8.292969 6.722656 15.015626 15.015625 15.015626h5.003906v54.054687c0 8.292969 6.722657 15.015625 15.015625 15.015625h240.25c8.292969 0 15.015625-6.722656 15.015625-15.015625v-54.054687h5.007813c8.292968 0 15.015625-6.722657 15.015625-15.015626zm-30.03125 57.058594v230.242188h-250.261719v-230.242188zm-137.457031-146.183594c2.847656-4.09375 7.339843-6.441406 12.324218-6.441406 4.988282 0 9.480469 2.347656 12.328125 6.441406l39.019531 56.089844h-102.691406zm-52.742188 86.121094h130.136719v30.03125h-130.136719zm170.175781 359.375h-210.21875v-39.039062h210.21875zm0 0"/></svg>