<svg height="512pt" viewBox="0 -31 512.00063 512" width="512pt" xmlns="http://www.w3.org/2000/svg"><path d="m497 360.003906h-19v-45c0-8.285156-6.714844-15-15-15h-16.640625l64.847656-191.546875c1.414063-4.175781.921875-8.761719-1.347656-12.539062-2.273437-3.777344-6.085937-6.363281-10.4375-7.074219l-1.011719-.167969c-34.777344-5.707031-69.464844-3.984375-103.121094 5.109375-15.214843-17.113281-32.554687-32.425781-51.667968-45.4375-25.941406-17.65625-54.394532-30.71875-84.570313-38.828125-31.265625-8.398437-63.632812-11.261719-96.199219-8.5-4.105468.347657-7.886718 2.363281-10.453124 5.582031-2.570313 3.21875-3.707032 7.351563-3.140626 11.429688l7.613282 54.707031c-26.410156-4.082031-53.277344-4.042969-80.21875.179688l-14.003906 2.195312c-4.605469.722657-8.609376 3.542969-10.84375 7.632813-2.230469 4.089844-2.4375 8.980468-.558594 13.242187l35.386718 80.199219c-21.242187-6.019531-43.761718-7.511719-66.011718-4.019531l-7.945313 1.242187c-5.085937.800782-9.40625 4.148438-11.445312 8.875-2.042969 4.726563-1.515625 10.171875 1.390625 14.417969l51.546875 75.300781h-5.167969c-8.285156 0-15 6.714844-15 15v73h-19c-8.285156 0-15 6.714844-15 15v60c0 8.285156 6.714844 15 15 15h482c8.285156 0 15-6.714844 15-15v-60c0-8.285156-6.714844-15-15-15zm-15 60h-452v-30h452zm-418-118h93.453125l77.59375 27.15625c1.589844.558594 3.265625.84375 4.953125.84375h208v30h-384zm39.945312-86.582031 24.964844 56.582031h-38.382812l-49.054688-71.660156c21.804688-.53125 43.375 4.703125 62.472656 15.078125zm57.265626-111.488281 24.515624 176.179687-20.769531-7.269531c-1.039062-.363281-2.113281-.597656-3.203125-.722656l-75.15625-170.335938c25.117188-3.367187 50.121094-2.636718 74.613282 2.148438zm20.015624-73.871094c23.71875-.519531 47.21875 2.296875 70.039063 8.429688 26.925781 7.234374 52.320313 18.894531 75.472656 34.652343 13.546875 9.21875 26.085938 19.734375 37.476563 31.316407-20.914063 8.800781-40.480469 20.492187-58.433594 34.957031-26.34375 21.226562-47.597656 47.09375-63.167969 76.890625-12.359375 23.652344-20.597656 48.824218-24.625 75.097656l-.421875-.148438zm233.457032 269.941406h-167.621094c3.28125-24.484375 10.691406-47.894531 22.140625-69.800781 13.648437-26.117187 32.285156-48.804687 55.398437-67.425781 23.175782-18.667969 49.394532-32.085938 77.9375-39.882813 18.3125-5.003906 36.984376-7.511719 55.824219-7.511719 6.167969 0 12.355469.269532 18.554688.808594zm0 0"/></svg>