<svg height="512pt" viewBox="0 0 512.00079 512" width="512pt" xmlns="http://www.w3.org/2000/svg"><path d="m509.425781 488.597656-241.503906-357c-2.789063-4.125-7.441406-6.597656-12.421875-6.597656-.003906 0-.011719 0-.015625 0-4.984375.003906-9.640625 2.484375-12.425781 6.621094l-240.5 357c-3.097656 4.597656-3.40625 10.53125-.800782 15.425781 2.605469 4.894531 7.699219 7.953125 13.242188 7.953125h482c5.550781 0 10.648438-3.0625 13.25-7.964844 2.601562-4.90625 2.285156-10.84375-.824219-15.4375zm-391.488281-117.550781h64.0625c8.285156 0 15-6.714844 15-15s-6.714844-15-15-15h-43.851562l40.449218-60.046875h44.402344c8.285156 0 15-6.714844 15-15s-6.714844-15-15-15h-24.191406l50.601562-75.113281 65.941406 225.359375h-47.351562c-8.285156 0-15 6.71875-15 15 0 8.285156 6.714844 15 15 15h56.132812l14.851563 50.753906h-295.792969zm252.304688 110.953125-75.089844-256.613281 118.964844 175.859375h-20.117188c-8.285156 0-15 6.71875-15 15 0 8.285156 6.714844 15 15 15h39c.460938 0 .914062-.027344 1.363281-.066406l34.378907 50.820312zm0 0"/><path d="m264 356c0-8.285156-6.714844-15-15-15h-7c-8.285156 0-15 6.714844-15 15s6.714844 15 15 15h7c8.285156 0 15-6.714844 15-15zm0 0"/><path d="m208 401h-24c-8.285156 0-15 6.714844-15 15s6.714844 15 15 15h24c8.285156 0 15-6.714844 15-15s-6.714844-15-15-15zm0 0"/><path d="m85 170c46.871094 0 85-38.128906 85-85 0-46.867188-38.128906-85-85-85-46.867188 0-85 38.132812-85 85 0 46.871094 38.132812 85 85 85zm0-140c30.328125 0 55 24.671875 55 55s-24.671875 55-55 55-55-24.671875-55-55 24.671875-55 55-55zm0 0"/></svg>