<svg height="512pt" viewBox="-2 0 512 512.00022" width="512pt" xmlns="http://www.w3.org/2000/svg"><path d="m495.578125 180.96875-74.75-13.179688 15.546875-88.152343 15.320312 2.703125c.882813.15625 1.765626.230468 2.636719.230468 7.183594 0 13.546875-5.148437 14.835938-12.46875 1.449219-8.203124-4.03125-16.03125-12.234375-17.476562l-297.140625-52.394531c-8.203125-1.445313-16.027344 4.035156-17.472657 12.238281-1.449218 8.207031 4.03125 16.03125 12.234376 17.476562l14.394531 2.539063-15.542969 88.148437-73.824219-13.015624c-8.207031-1.445313-16.027343 4.03125-17.472656 12.238281-1.449219 8.203125 4.03125 16.027343 12.234375 17.476562l14.859375 2.621094-26.460937 150.054687-14.855469-2.621093c-8.210938-1.453125-16.03125 4.035156-17.476563 12.238281-1.449218 8.203125 4.03125 16.027344 12.238282 17.476562l14.855468 2.621094-28.582031 162.105469h-13.835937c-8.332032 0-15.085938 6.753906-15.085938 15.085937 0 8.332032 6.753906 15.085938 15.085938 15.085938h422.410156c8.332031 0 15.085937-6.753906 15.085937-15.085938 0-8.332031-6.753906-15.085937-15.085937-15.085937h-10.445313l16.628907-94.015625 14.960937 2.640625c.886719.15625 1.769531.230469 2.636719.230469 7.183594 0 13.550781-5.148438 14.839844-12.46875 1.449218-8.207032-4.03125-16.03125-12.238282-17.476563l-14.941406-2.636719 26.535156-150.039062 14.867188 2.621094c.886718.15625 1.765625.230468 2.636718.230468 7.183594 0 13.550782-5.148437 14.839844-12.46875 1.445313-8.203124-4.03125-16.03125-12.238281-17.476562zm-296.914063-143.246094 207.996094 36.675782-15.542968 88.152343-29.714844-5.242187 7.859375-44.570313c1.445312-8.203125-4.03125-16.027343-12.238281-17.476562-8.214844-1.449219-16.027344 4.035156-17.476563 12.238281l-7.859375 44.570312-29.710938-5.238281 7.855469-44.570312c1.449219-8.207031-4.03125-16.03125-12.234375-17.476563-8.214844-1.449218-16.03125 4.03125-17.476562 12.238282l-7.859375 44.566406-29.714844-5.238282 7.859375-44.570312c1.445312-8.203125-4.03125-16.027344-12.238281-17.476562-8.203125-1.449219-16.027344 4.03125-17.472657 12.238281l-7.859374 44.570312-29.714844-5.238281zm197.746094 444.105469h-30.953125l9.789063-55.527344c1.449218-8.207031-4.03125-16.03125-12.234375-17.480469-8.207031-1.445312-16.03125 4.035157-17.476563 12.238282l-10.714844 60.769531h-30.636718l11.636718-66.007813c1.445313-8.203124-4.03125-16.03125-12.234374-17.476562-8.207032-1.445312-16.03125 4.03125-17.476563 12.238281l-12.5625 71.246094h-30.640625l13.488281-76.488281c1.445313-8.203125-4.03125-16.027344-12.238281-17.476563-8.203125-1.445312-16.027344 4.035157-17.472656 12.238281l-14.410156 81.726563h-30.640626l15.335938-86.964844c1.445312-8.203125-4.03125-16.03125-12.238281-17.476562-8.203125-1.441407-16.027344 4.03125-17.476563 12.238281l-16.257812 92.203125h-30.636719l17.179687-97.445313c1.449219-8.203124-4.03125-16.027343-12.234374-17.476562-8.203126-1.441406-16.03125 4.035156-17.476563 12.238281l-18.109375 102.683594h-30.160156l27.660156-156.867187 326.746094 57.613281zm22.8125-128.964844-30.089844-5.304687 16.675782-94.589844c1.449218-8.207031-4.03125-16.03125-12.234375-17.476562-8.207031-1.445313-16.03125 4.03125-17.476563 12.238281l-16.679687 94.585937-29.714844-5.238281 16.679687-94.589844c1.445313-8.203125-4.03125-16.027343-12.238281-17.476562-8.207031-1.445313-16.03125 4.03125-17.476562 12.238281l-16.675781 94.589844-29.714844-5.238282 16.675781-94.589843c1.449219-8.207031-4.03125-16.03125-12.234375-17.476563-8.207031-1.449218-16.03125 4.03125-17.476562 12.238282l-16.679688 94.585937-29.710938-5.238281 16.675782-94.589844c1.445312-8.203125-4.03125-16.027344-12.234375-17.476562-8.203125-1.445313-16.03125 4.035156-17.476563 12.238281l-16.679687 94.589843-29.714844-5.238281 16.679687-94.589843c1.445313-8.203126-4.03125-16.027344-12.238281-17.476563-8.203125-1.449219-16.027343 4.03125-17.476562 12.238281l-16.675781 94.589844-29.253907-5.160156 26.460938-150.054688 326.84375 57.632813zm0 0"/></svg>