<svg height="512pt" viewBox="0 -1 512 512" width="512pt" xmlns="http://www.w3.org/2000/svg"><path d="m512 103.6875v-78.648438c0-9.804687-5.515625-18.480468-14.394531-22.640624-8.882813-4.160157-19.078125-2.84375-26.609375 3.433593l-40.660156 33.882813c-22.417969 18.683594-50.839844 28.972656-80.023438 28.972656h-188.625c-29.183594 0-57.605469-10.289062-80.023438-28.972656l-40.660156-33.882813c-7.53125-6.277343-17.726562-7.59375-26.605468-3.433593-8.882813 4.160156-14.398438 12.835937-14.398438 22.640624v78.648438c0 28.640625 22.007812 52.226562 50 54.761719v50.238281h-34c-8.285156 0-15 6.71875-15 15v60c0 8.285156 6.714844 15 15 15h34v82h-5c-8.285156 0-15 6.71875-15 15v100c0 8.285156 6.714844 15 15 15h100c8.285156 0 15-6.714844 15-15v-100c0-8.28125-6.714844-15-15-15h-5v-82h231v82h-5c-8.285156 0-15 6.71875-15 15v100c0 8.285156 6.714844 15 15 15h100c8.285156 0 15-6.714844 15-15v-100c0-8.28125-6.714844-15-15-15h-5v-82h35c8.285156 0 15-6.714844 15-15v-60c0-8.28125-6.714844-15-15-15h-35v-50.160156c28.464844-2.058594 51-25.859375 51-54.839844zm-482 0v-67.972656l32.457031 27.046875c27.800781 23.167969 63.042969 35.925781 99.230469 35.925781h188.625c36.1875 0 71.429688-12.757812 99.230469-35.925781l32.457031-27.046875v67.972656c0 13.785156-11.214844 25-25 25h-402c-13.785156 0-25-11.214844-25-25zm451 165h-450v-30h450zm-270-110v50h-71v-50zm60 50h-30v-50h30zm30 0v-50h70v50zm-221-50h30v50h-30zm50 322h-70v-70h70zm-20-100h-30v-82h30zm341 100h-70v-70h70zm-20-100h-30v-82h30zm-30-172v-50h30v50zm0 0"/></svg>