<svg height="512pt" viewBox="0 0 512 512" width="512pt" xmlns="http://www.w3.org/2000/svg"><path d="m483.011719 368.953125c-13.5625-147.839844-68.625-250.898437-151.535157-288.867187.117188-1.707032.199219-3.421876.199219-5.160157 0-41.3125-33.613281-74.925781-74.925781-74.925781-41.316406 0-74.925781 33.613281-74.925781 74.925781 0 1.441407.050781 2.871094.128906 4.292969-83.980469 37.246094-139.792969 140.75-153.464844 289.734375-16.964843 9.363281-28.488281 27.429687-28.488281 48.140625v39.960938c0 30.296874 24.648438 54.945312 54.945312 54.945312h401.609376c30.296874 0 54.945312-24.648438 54.945312-54.945312v-39.960938c0-20.710938-11.523438-38.777344-28.488281-48.140625zm-226.261719-338.980469c24.789062 0 44.957031 20.164063 44.957031 44.953125 0 24.789063-20.167969 44.957031-44.957031 44.957031s-44.957031-20.167968-44.957031-44.957031c0-24.789062 20.167969-44.953125 44.957031-44.953125zm-44.683594 105.058594c12.484375 9.308594 27.949219 14.824219 44.683594 14.824219 16.078125 0 30.972656-5.109375 43.191406-13.761719 4.855469 10.117188 9.433594 21.941406 13.660156 35.410156 14.878907 47.425782 24.605469 112.738282 28.507813 190.640625h-172.71875c3.902344-77.902343 13.628906-143.214843 28.507813-190.640625 4.371093-13.9375 9.125-26.128906 14.167968-36.472656zm-182.09375 322.023438v-39.960938c0-13.773438 11.203125-24.976562 24.972656-24.976562h401.609376c13.769531 0 24.976562 11.203124 24.976562 24.976562v39.960938c0 13.769531-11.207031 24.972656-24.976562 24.972656h-401.609376c-13.769531 0-24.972656-11.203125-24.972656-24.972656zm302.792969-342.421876c23.132813 13.6875 43.664063 34.074219 61.027344 60.59375 30.417969 46.460938 50.351562 110.488282 58.4375 186.917969h-80.121094c-3.992187-81.121093-14.199219-149.539062-29.910156-199.609375-6.097657-19.445312-13.039063-36.132812-20.730469-49.925781.609375-1.039063 1.191406-2.089844 1.746094-3.160156 3.230468 1.609375 6.417968 3.328125 9.550781 5.183593zm-154.03125 0c3.648437-2.160156 7.371094-4.132812 11.152344-5.957031.371093.730469.738281 1.464844 1.132812 2.183594-8.082031 14.121094-15.359375 31.402344-21.71875 51.675781-15.707031 50.074219-25.914062 118.488282-29.910156 199.613282h-80.121094c8.085938-76.433594 28.019531-140.460938 58.4375-186.917969 17.363281-26.523438 37.894531-46.910157 61.027344-60.597657zm0 0"/></svg>