<svg height="512pt" viewBox="0 -56 512 512" width="512pt" xmlns="http://www.w3.org/2000/svg"><path d="m500.15625 237.132812-37.171875-32.796874-15.304687-97.835938c-3.460938-22.144531-19.523438-39.289062-40.273438-44.699219v-31.800781h24.59375c8.285156 0 15-6.714844 15-15s-6.714844-15-15-15h-226c-8.285156 0-15 6.714844-15 15s6.714844 15 15 15h24.59375v30h-1.414062c-22.035157 0-41.882813 13.089844-50.558594 33.34375l-36.363282 84.90625-108.089843 42.972656c-20.757813 8.25-34.167969 28.011719-34.167969 50.351563v28.238281c0 12.925781 4.632812 25.449219 13.042969 35.261719 10.304687 12.027343 25.304687 18.925781 41.144531 18.925781h11.710938c6.679687 25.847656 30.195312 45 58.101562 45s51.425781-19.152344 58.101562-45h152.796876c6.675781 25.847656 30.195312 45 58.101562 45s51.421875-19.152344 58.101562-45h25.898438c19.300781 0 35-15.699219 35-35v-55.625c0-10.039062-4.316406-19.605469-11.84375-26.242188zm-82.117188-125.996093 14.8125 94.675781-9.292968 7.570312c-4.445313 3.621094-10.054688 5.617188-15.792969 5.617188h-30.902344v-129h16.480469c12.394531 0 22.78125 8.890625 24.695312 21.136719zm-157.445312-81.136719h116.8125v30h-116.8125zm-54.394531 75.15625c3.941406-9.207031 12.964843-15.15625 22.980469-15.15625h117.683593v129h-141.203125c-8.140625 0-15.792968-3.980469-20.464844-10.644531l-14.402343-20.535157zm-52.199219 233.84375c0 16.542969-13.457031 30-30 30s-30-13.457031-30-30 13.457031-30 30-30 30 13.457031 30 30zm269 0c0 16.542969-13.457031 30-30 30s-30-13.457031-30-30 13.457031-30 30-30 30 13.457031 30 30zm59-20c0 2.757812-2.242188 5-5 5h-25.898438c-6.675781-25.847656-30.195312-45-58.101562-45s-51.425781 19.152344-58.101562 45h-152.796876c-6.679687-25.847656-30.195312-45-58.101562-45s-51.425781 19.152344-58.101562 45h-11.710938c-7.070312 0-13.765625-3.078125-18.367188-8.449219-3.753906-4.378906-5.820312-9.96875-5.820312-15.738281v-28.238281c0-9.972657 5.984375-18.792969 15.25-22.476563l103.121094-40.996094 12.261718 17.476563c10.285157 14.664063 27.117188 23.421875 45.027344 23.421875h202.105469c12.621094 0 24.957031-4.390625 34.742187-12.363281l6.105469-4.972657 31.695313 27.964844c1.074218.945313 1.6875 2.3125 1.6875 3.746094v55.625zm0 0"/></svg>