<svg height="512pt" viewBox="0 -55 512.00032 512" width="512pt" xmlns="http://www.w3.org/2000/svg"><path d="m211 279.898438h27.199219l-61.597657-128.296876-19.300781 51.097657c8.800781 4.902343 16.898438 11 24 18.199219 7.800781 7.800781 14.398438 16.902343 19.398438 26.800781 1.101562 2.300781 2.199219 4.601562 3.199219 6.902343.601562 1.398438 1.101562 2.796876 1.703124 4.296876 2.5 6.703124 4.296876 13.703124 5.398438 21zm-71.601562-235c0 2.800781 2.203124 5 4.800781 5l60.199219-.097657c2.601562 0 4.800781-2.199219 4.800781-5v-10c0-2.800781-2.199219-5-4.800781-5l-60.199219.097657c-2.597657 0-4.800781 2.203124-4.800781 5zm-33.199219 326.800781c37.101562-.097657 68-26.800781 74.699219-61.898438l-74.296876.097657c-4.902343 0-9.5-2.398438-12.300781-6.398438s-3.402343-9.199219-1.699219-13.800781l26.097657-69.398438c-.800781-.101562-1.597657-.300781-2.398438-.402343-2.300781-.296876-4.601562-.5-7-.597657-1.101562 0-2.300781-.101562-3.402343-.101562-5.898438 0-11.699219.699219-17.199219 2-.597657.101562-1.199219.300781-1.800781.5-2.398438.601562-4.796876 1.402343-7.097657 2.199219-1.199219.402343-2.300781.902343-3.402343 1.402343-1.097657.5-2.296876 1-3.398438 1.5s-2.199219 1.097657-3.300781 1.699219c-23.800781 13-39.898438 38.199219-39.800781 67.101562.101562 42.097657 34.300781 76.199219 76.300781 76.097657zm405.800781-77c.101562 58.5-47.398438 106.199219-105.898438 106.300781s-106.203124-47.398438-106.300781-105.898438c-.101562-40.203124 22.300781-75.300781 55.300781-93.300781l-17.703124-47.800781-61.699219 146.5c-2.300781 5.5-7.699219 9.101562-13.699219 9.101562l-50.800781.097657c-7 51.699219-51.300781 91.800781-104.898438 91.902343-58.5.097657-106.199219-47.402343-106.300781-105.902343s47.398438-106.199219 105.898438-106.300781c8.101562 0 16 .902343 23.601562 2.601562l30.601562-81.101562-.101562-31.097657h-15.601562c-19.097657 0-34.699219-15.601562-34.699219-34.800781v-10c0-19.199219 15.5-34.898438 34.601562-34.898438l60.199219-.101562c19.101562 0 34.699219 15.601562 34.699219 34.800781v10c0 19.199219-15.5 34.898438-34.597657 34.898438h-14.601562v18.902343l126.898438-.300781-18.597657-50.101562c-2.800781-7.597657-1.699219-16.199219 2.898438-22.898438 4.601562-6.699219 12.300781-10.699219 20.402343-10.699219l87.296876-.203124c26.402343-.097657 47.902343 21.300781 47.902343 47.703124 0 26.398438-21.402343 47.796876-47.699219 47.898438h-9c-8.300781 0-15-6.699219-15-14.898438 0-8.300781 6.699219-14.902343 14.898438-15h9c9.898438 0 17.898438-8.101562 17.898438-18 0-9.902343-8.097657-17.902343-18-17.902343l-80.199219.199219 54.402343 146.800781c7.296876-1.597657 14.796876-2.5 22.597657-2.5 58.5 0 106.199219 47.5 106.300781 106zm-31.800781 17.402343c1.300781-5.601562 2-11.402343 2-17.300781 0-5.902343-.699219-11.601562-2-17.199219-.097657-.601562-.300781-1.203124-.5-1.800781-.597657-2.402343-1.398438-4.800781-2.199219-7.101562-.398438-1.199219-.898438-2.300781-1.398438-3.5-.5-1.097657-1-2.300781-1.5-3.398438-.5-1.101562-1.101562-2.199219-1.703124-3.300781-13-23.699219-38.199219-39.898438-67.097657-39.800781-2.601562 0-5.101562.101562-7.601562.402343-1 .097657-2 .199219-3 .398438-.5.101562-1 .101562-1.5.199219l25.800781 69.5c.199219.402343.300781.902343.398438 1.300781 1.402343 5.300781-.199219 10.800781-3.898438 14.5-.101562.101562-.300781.300781-.398438.398438-.101562.101562-.300781.300781-.402343.402343-.300781.300781-.597657.5-.898438.699219-1.101562.800781-2.300781 1.398438-3.601562 1.898438-1.699219.601562-3.5.902343-5.199219.902343-4.199219 0-8.199219-1.800781-11-4.800781-.300781-.300781-.5-.601562-.699219-.898438-.5-.601562-.902343-1.203124-1.300781-1.902343s-.699219-1.398438-1-2.097657l-25.601562-69.101562-.097657-.199219c-21.601562 13.5-36 37.5-36 64.800781 0 5.199219.5 10.398438 1.597657 15.296876.402343 1.902343.800781 3.703124 1.402343 5.5 1 3.601562 2.300781 7.101562 3.898438 10.5.5 1.101562 1 2.203124 1.601562 3.300781.800781 1.601562 1.800781 3.300781 2.699219 4.800781 1 1.601562 2 3.101562 3 4.601562.699219 1 1.398438 2 2.199219 2.898438.800781 1 1.5 1.898438 2.300781 2.800781.800781.898438 1.601562 1.800781 2.5 2.699219 13.898438 14.601562 33.5 23.601562 55.199219 23.601562 4 0 8-.300781 11.902343-1 1-.203124 2-.402343 3.097657-.601562 16.199219-3.300781 30.601562-11.699219 41.300781-23.5.800781-.898438 1.601562-1.800781 2.398438-2.800781 5.800781-7.097657 10.402343-15.199219 13.402343-24 .199219-.597657.398438-1.199219.597657-1.800781.402343-1.199219.703124-2.398438 1-3.597657 0-.5.101562-1.101562.300781-1.699219zm-219.199219-53.703124 54.800781-130.097657-117.101562.199219zm-132.800781 21.601562 52.5-.101562c-1.300781-6.398438-3.5-12.5-6.300781-18.199219-.597657-1.097657-1.199219-2.300781-1.796876-3.398438-.601562-1.101562-1.300781-2.199219-1.902343-3.300781-1.398438-2.199219-2.800781-4.199219-4.398438-6.199219-1.199219-1.5-2.402343-3-3.699219-4.402343-4.703124-5.199219-10-9.699219-15.902343-13.398438zm0 0"/></svg>