<svg height="511pt" viewBox="0 0 511.99944 511" width="511pt" xmlns="http://www.w3.org/2000/svg"><path d="m508.261719 388.691406c-4.652344-7.484375-12.757813-11.953125-21.6875-11.953125h-171.160157v-36.230469h127.621094c9.230469 0 17.742188-4.882812 22.210938-12.746093 4.351562-7.660157 4.257812-16.761719-.257813-24.34375l-149.796875-251.46875.03125-26.726563c.011719-6.699218-2.691406-12.96875-7.605468-17.652344-5.066407-4.824218-12.039063-7.398437-19.144532-7.039062-40.882812 2.03125-79.601562 14.695312-115.082031 37.640625-30.976563 20.03125-58.949219 47.492187-83.148437 81.617187-41.144532 58.027344-68.65625 132.675782-71.796876 194.808594-.339843 6.6875 2.042969 13.078125 6.714844 17.988282 4.785156 5.035156 11.578125 7.925781 18.636719 7.925781h241.617187v36.230469h-260c-10.347656 0-19.574218 6.074218-23.507812 15.476562-3.839844 9.179688-1.777344 19.714844 5.257812 26.84375l84.449219 85.605469c4.757813 4.824219 11.410157 7.589843 18.25 7.589843h334.484375c9.675782 0 18.652344-5.523437 22.867188-14.074218l42.226562-85.605469c3.789063-7.679687 3.347656-16.609375-1.179687-23.886719zm-192.847657-277.746094 57.945313 97.277344h-57.945313zm0 199.5625v-72.285156h75.816407l43.058593 72.285156zm-30.199218-279.722656-.085938 70.222656h-140.667968c33.027343-34.421874 79.417968-65.746093 140.753906-70.222656zm-170.5 106.355469c1.4375-2.027344 2.921875-4.070313 4.453125-6.128906h165.921875l-.097656 77.210937h-209.550782c10.667969-25.152344 24.015625-49.566406 39.273438-71.082031zm-50.601563 101.070313c.066407.003906.136719.011718.207031.011718h220.632813l-.089844 72.285156h-236.101562c1.734375-22.65625 7.105469-47.425781 15.351562-72.296874zm377.507813 244.042968h-329.976563l-74.492187-75.511718h441.714844zm0 0"/></svg>