<svg height="512pt" viewBox="0 -66 512 512" width="512pt" xmlns="http://www.w3.org/2000/svg"><path d="m470.101562 186.300781c-4.601562-14-10.601562-27.5-17.902343-40.300781h-212.398438v88h25.199219c10.101562-33.300781 40.800781-57.601562 77.101562-58h44.199219 44.199219c14.398438 0 27.800781 3.800781 39.601562 10.300781zm-440.101562 138.699219c0 13.800781 11.199219 25 25 25h75.800781v-86h-100.800781zm481.898438-69.601562c0 .800781.101562 109.601562.101562 109.601562 0 8.300781-6.699219 15-15 15h-442c-30.300781 0-55-24.699219-55-55v-64.398438c0-69.601562 26.601562-135 74.898438-184.203124 48.300781-49.296876 112.703124-76.398438 181.101562-76.398438s132.800781 27.101562 181.101562 76.398438c47.097657 48 74.796876 107.601562 74.796876 179zm-29.898438 94.601562v-92.101562c0-28.597657-23.101562-51.898438-51.5-51.898438s-51.5 23.300781-51.5 51.898438v92.101562zm-49.898438-234c-.601562-.800781-1.300781-1.601562-1.902343-2.398438-1.300781-1.601562-2.597657-3.203124-4-4.703124-1.300781-1.597657-2.699219-3.097657-4.097657-4.597657-2.101562-2.300781-4.203124-4.601562-6.402343-6.800781-11.300781-11.5-23.597657-21.699219-36.699219-30.398438v48.898438zm-83.101562 141.898438c0-19.699219 7-37.796876 18.5-51.898438h-24.5c-28.398438 0-51.5 23.300781-51.5 51.898438v92.101562h57.5zm0-141.898438v-65.699219c-28.898438-13.300781-60.398438-20.300781-93-20.300781-33.398438 0-65.800781 7.398438-95.300781 21.398438v64.601562zm-87.5 234v-86h-100.699219v86zm-51.699219-116v-88h-150c-15.199219 26.898438-24.800781 56.800781-28.300781 88zm-79-118v-47.398438c-12.300781 8.398438-23.800781 18-34.5 28.898438-2.199219 2.199219-4.300781 4.5-6.402343 6.800781-1.398438 1.5-2.796876 3.097657-4.097657 4.597657-1.300781 1.601562-2.699219 3.101562-3.902343 4.703124-.699219.796876-1.296876 1.597657-1.898438 2.398438zm0 0"/></svg>