<svg height="512pt" viewBox="0 0 512 512" width="512pt" xmlns="http://www.w3.org/2000/svg"><path d="m457 229h-7.035156c-3.820313-8.816406-12.601563-15-22.800782-15h-3.164062v-99c0-63.511719-51.488281-115-115-115h-106c-63.511719 0-115 51.488281-115 115v99h-3.164062c-10.199219 0-18.984376 6.183594-22.800782 15h-7.035156c-30.375 0-55 24.625-55 55v70c0 30.375 24.625 55 55 55h7.035156c3.820313 8.816406 12.601563 15 22.800782 15h40.324218c13.71875 0 24.839844-11.121094 24.839844-24.839844v-160.324218c0-13.714844-11.121094-24.835938-24.835938-24.835938h-7.164062v-19c0-57.988281 47.011719-105 105-105h66c57.988281 0 105 47.011719 105 105v19h-7.164062c-13.714844 0-24.835938 11.121094-24.835938 24.835938v160.328124c0 13.714844 11.121094 24.835938 24.835938 24.835938h.664062c1.65625 0 3 1.34375 3 3 0 13.808594-11.191406 25-25 25h-25.863281c-2.433594-16.9375-17.035157-30-34.636719-30h-80c-19.328125 0-35 15.671875-35 35v20c0 19.328125 15.671875 35 35 35h80c17.601562 0 32.203125-13.0625 34.636719-30h25.863281c30.375 0 55-24.625 55-55 0-1.65625 1.34375-3 3-3h3.664062c10.199219 0 18.980469-6.183594 22.800782-15h7.035156c30.375 0 55-24.625 55-55v-70c0-30.375-24.625-55-55-55zm-427 125v-70c0-13.785156 11.214844-25 25-25h5v120h-5c-13.785156 0-25-11.214844-25-25zm90 40h-30v-150h30zm169-334h-66c-42.277344 0-80.074219 19.539062-104.84375 50.058594 2.566406-44.578125 39.632812-80.058594 84.84375-80.058594h106c45.210938 0 82.277344 35.480469 84.84375 80.058594-24.769531-30.519532-62.566406-50.058594-104.84375-50.058594zm21 397v20c0 2.757812-2.242188 5-5 5h-80c-2.757812 0-5-2.242188-5-5v-20c0-2.757812 2.242188-5 5-5h80c2.757812 0 5 2.242188 5 5zm172-103c0 13.785156-11.214844 25-25 25h-5v-120h5c13.785156 0 25 11.214844 25 25zm-90-110h30v150h-30zm0 0"/></svg>