<svg height="512pt" viewBox="0 -105 512.00065 512" width="512pt" xmlns="http://www.w3.org/2000/svg"><path d="m497.457031 229.296875c-.257812-.121094-92.457031-37.414063-92.457031-37.414063s-.359375-33.886718-.359375-53.113281c0-79.769531-69.921875-138.769531-148.640625-138.769531s-148.640625 60-148.640625 138.769531c0 13.226563-.355469 53.113281-.355469 53.113281s-92.203125 37.292969-92.460937 37.414063c-9.910157 4.679687-15.5625 14.519531-14.390625 25.0625 1.191406 10.734375 9.039062 19.25 19.996094 21.699219 11.425781 2.554687 20.144531 6.472656 29.375 10.617187 17.023437 7.648438 36.320312 16.316407 72.921874 16.316407 36.601563 0 55.898438-8.667969 72.921876-16.316407 16.34375-7.339843 30.453124-13.683593 60.628906-13.683593 30.171875 0 44.285156 6.34375 60.628906 13.683593 17.023438 7.648438 36.320312 16.316407 72.925781 16.316407 36.601563 0 55.898438-8.667969 72.925781-16.316407 9.226563-4.144531 17.949219-8.0625 29.375-10.617187 10.957032-2.449219 18.804688-10.964844 19.996094-21.699219 1.171875-10.542969-4.476562-20.382813-14.390625-25.0625zm-241.457031-199.296875c58.101562 0 106.601562 41.855469 116.953125 96.996094h-233.902344c10.347657-55.140625 58.847657-96.996094 116.949219-96.996094zm119 126.996094v30h-237.996094v-30zm75.179688 102.316406c-16.339844 7.339844-30.453126 13.683594-60.628907 13.683594s-44.289062-6.34375-60.632812-13.683594c-17.023438-7.648438-36.320313-16.316406-72.921875-16.316406-36.605469 0-55.898438 8.667968-72.921875 16.316406-16.34375 7.339844-30.457031 13.683594-60.628907 13.683594-30.171874 0-44.285156-6.34375-60.628906-13.683594-6.445312-2.894531-13.027344-5.855469-20.644531-8.453125l83.746094-33.863281h262.160156l83.746094 33.863281c-7.609375 2.597656-14.195313 5.558594-20.644531 8.453125zm0 0"/></svg>