<svg height="512pt" viewBox="-8 0 512 512" width="512pt" xmlns="http://www.w3.org/2000/svg"><path d="m179.039062 163h138c8.285157 0 15-6.714844 15-15s-6.714843-15-15-15h-138c-8.28125 0-15 6.714844-15 15s6.71875 15 15 15zm0 0"/><path d="m495.382812 362.804688c-2.871093-8.925782-9.050781-16.1875-17.398437-20.453126l-22.957031-11.726562-18.378906-129.925781c-3.101563-21.914063-22.019532-38.472657-44.105469-38.695313v-44.003906c0-24.8125-20.1875-45-45-45h-24.5v-38c0-19.300781-15.703125-35-35-35h-80c-19.300781 0-35 15.699219-35 35v38h-23.503907c-24.8125 0-45 20.1875-45 45v44h-.546874c-22.28125 0-41.4375 16.636719-44.558594 38.695312l-18.453125 130.480469-21.882813 11.175781c-8.347656 4.265626-14.527344 11.527344-17.398437 20.453126-2.871094 8.921874-2.085938 18.425781 2.210937 26.757812l53.359375 103.476562c6.03125 11.695313 17.949219 18.960938 31.109375 18.960938h320.324219c13.160156 0 25.078125-7.265625 31.109375-18.960938l53.359375-103.476562c4.296875-8.332031 5.082031-17.832031 2.210937-26.757812zm-86.679687 119.195312h-145.664063v-215.75l201.296876 102.820312c1.609374.820313 2.25 2.183594 2.488281 2.921876.238281.738281.511719 2.21875-.316407 3.820312l-53.359374 103.480469c-.863282 1.667969-2.566407 2.707031-4.445313 2.707031zm-324.769531-2.710938-53.359375-103.476562c-.828125-1.605469-.554688-3.082031-.316407-3.820312.238282-.738282.878907-2.101563 2.484376-2.921876l200.296874-102.308593v215.238281h-144.660156c-1.882812 0-3.585937-1.039062-4.445312-2.710938zm20.058594-287.289062h5.546874c13.785157 0 25-11.214844 25-25v-49c0-8.269531 6.730469-15 15-15h198c8.273438 0 15 6.730469 15 15v49c0 13.785156 11.214844 25 25 25h4.550782c7.425781 0 13.8125 5.546875 14.851562 12.898438l15.425782 109.046874-157.90625-80.65625c-9.96875-5.09375-21.871094-5.09375-31.839844 0l-158.984375 81.207032 15.503906-109.597656c1.039063-7.351563 7.425781-12.898438 14.851563-12.898438zm104.046874-162h80c2.757813 0 5 2.242188 5 5v38h-90v-38c0-2.757812 2.246094-5 5-5zm0 0"/><path d="m333.039062 354c0 11.046875-8.953124 20-20 20-11.042968 0-20-8.953125-20-20s8.957032-20 20-20c11.046876 0 20 8.953125 20 20zm0 0"/><path d="m203.039062 354c0 11.046875-8.953124 20-20 20-11.042968 0-20-8.953125-20-20s8.957032-20 20-20c11.046876 0 20 8.953125 20 20zm0 0"/></svg>