<svg height="512pt" viewBox="-9 0 512 512.00093" width="512pt" xmlns="http://www.w3.org/2000/svg"><path d="m491.222656 474.210938-225.578125-378.847657 43.558594-72.644531c4.257813-7.105469 1.953125-16.320312-5.152344-20.578125-7.105469-4.265625-16.316406-1.957031-20.578125 5.148437l-35.253906 58.800782-34.992188-58.761719c-4.238281-7.117187-13.441406-9.449219-20.5625-5.214844-7.117187 4.238281-9.453124 13.445313-5.214843 20.5625l43.246093 72.632813-227.144531 378.835937c-4.621093 7.710938-4.738281 17.355469-.308593 25.175781 4.429687 7.820313 12.765624 12.679688 21.753906 12.679688h444.746094c8.972656 0 17.300781-4.84375 21.734374-12.644531 4.433594-7.800781 4.339844-17.433594-.253906-25.144531zm-243.097656-349.632813 38.167969 64.101563h-76.601563zm-101.546875 357.421875 100.695313-171.03125 100.8125 171.03125zm236.328125 0-122.714844-208.199219c-2.699218-4.578125-7.613281-7.386719-12.921875-7.386719-.003906 0-.003906 0-.003906 0-5.3125.003907-10.230469 2.8125-12.921875 7.390626l-122.578125 208.195312h-77.945313l157.882813-263.320312h112.453125l156.789062 263.320312zm0 0"/></svg>