<svg height="512pt" viewBox="0 -55 512 512" width="512pt" xmlns="http://www.w3.org/2000/svg"><path d="m457 0h-402c-30.328125 0-55 24.671875-55 55v292c0 30.328125 24.671875 55 55 55h402c30.328125 0 55-24.671875 55-55v-292c0-30.328125-24.671875-55-55-55zm25 347c0 13.785156-11.214844 25-25 25h-402c-13.785156 0-25-11.214844-25-25v-292c0-13.785156 11.214844-25 25-25h402c13.785156 0 25 11.214844 25 25zm0 0"/><path d="m257 66c-8.285156 0-15 6.714844-15 15v240c0 8.285156 6.714844 15 15 15s15-6.714844 15-15v-240c0-8.285156-6.714844-15-15-15zm0 0"/><path d="m425.527344 60h-55.058594c-14.59375 0-26.46875 11.875-26.46875 26.472656v55.058594c0 14.59375 11.875 26.46875 26.472656 26.46875h55.058594c14.59375 0 26.46875-11.875 26.46875-26.472656v-55.058594c0-14.59375-11.875-26.46875-26.472656-26.46875zm-3.527344 78h-48v-48h48zm0 0"/><path d="m75 130h52c8.285156 0 15-6.714844 15-15s-6.714844-15-15-15h-52c-8.285156 0-15 6.714844-15 15s6.714844 15 15 15zm0 0"/><path d="m197 160h-122c-8.285156 0-15 6.714844-15 15s6.714844 15 15 15h122c8.285156 0 15-6.714844 15-15s-6.714844-15-15-15zm0 0"/><path d="m197 220h-122c-8.285156 0-15 6.714844-15 15s6.714844 15 15 15h122c8.285156 0 15-6.714844 15-15s-6.714844-15-15-15zm0 0"/><path d="m197 280h-122c-8.285156 0-15 6.714844-15 15s6.714844 15 15 15h122c8.285156 0 15-6.714844 15-15s-6.714844-15-15-15zm0 0"/></svg>