<svg height="512pt" viewBox="0 -91 512 512" width="512pt" xmlns="http://www.w3.org/2000/svg"><path d="m493.296875 132.855469-74.226563-108.242188c-14.191406-20.703125-38.855468-29.28125-62.832031-21.847656-23.976562 7.429687-39.46875 28.449219-39.46875 53.550781 0 8.285156 6.714844 15 15 15 8.285157 0 15-6.714844 15-15 0-14.164062 9.476563-22.144531 18.347657-24.894531 8.871093-2.75 21.203124-1.527344 29.210937 10.15625l59.824219 87.238281h-149.152344c-12.511719 0-23.503906 6.601563-29.691406 16.5h-38.617188c-6.1875-9.898437-17.179687-16.5-29.691406-16.5h-149.308594l59.988282-87.378906c8.011718-11.671875 20.34375-12.890625 29.210937-10.140625s18.339844 10.734375 18.339844 24.894531c0 8.28125 6.71875 15 15 15 8.285156 0 15-6.71875 15-15 0-25.09375-15.484375-46.113281-39.453125-53.546875-23.96875-7.4375-48.628906 1.125-62.832032 21.816407l-74.507812 108.53125c-10.964844 5.917968-18.4375 17.515624-18.4375 30.824218v82c0 46.867188 38.132812 85 85 85h42c60.210938 0 109.757812-46.515625 114.605469-105.5h28.789062c4.847657 58.984375 54.394531 105.5 114.605469 105.5h42c46.867188 0 85-38.132812 85-85v-82c0-13.417968-7.59375-25.089844-18.703125-30.960937zm-66.296875 167.960937h-42c-46.867188 0-85-38.132812-85-85v-52c0-2.757812 2.242188-5 5-5h172c2.757812 0 5 2.242188 5 5v82c0 30.328125-24.671875 55-55 55zm-300 0h-42c-30.328125 0-55-24.671875-55-55v-82c0-2.757812 2.242188-5 5-5h172c2.757812 0 5 2.242188 5 5v52c0 46.871094-38.132812 85-85 85zm115-125.5h28v20h-28zm0 0"/></svg>