<svg height="511pt" viewBox="0 0 511.99981 511" width="511pt" xmlns="http://www.w3.org/2000/svg"><path d="m506.964844 360.894531-71.6875-119.480469c17.277344-16.746093 34.039062-36.949218 49.234375-62.929687 24.386719-41.703125 29.953125-92.019531 15.269531-138.046875-4.199219-13.15625-14.5625-23.519531-27.71875-27.71875-46.027344-14.683594-96.34375-9.117188-138.046875 15.273438-25.980469 15.191406-46.183594 31.953124-62.925781 49.230468l-119.484375-71.6875c-13.886719-8.332031-31.585938-6.15625-43.035157 5.296875l-29.597656 29.59375c-6.652344 6.65625-10.316406 15.5-10.316406 24.910157 0 9.410156 3.664062 18.257812 10.316406 24.910156l102.859375 102.855468-53.285156 72.148438-66.933594-28.773438c-13.324219-5.726562-28.5625-2.800781-38.820312 7.453126l-12.476563 12.476562c-6.652344 6.652344-10.316406 15.5-10.316406 24.910156s3.664062 18.257813 10.316406 24.910156l195.957032 195.953126c6.867187 6.871093 15.886718 10.304687 24.910156 10.304687 9.019531 0 18.042968-3.4375 24.910156-10.304687l12.519531-12.519532c10.207031-10.207031 13.160157-25.390625 7.515625-38.679687l-28.5625-67.261719 71.828125-53.050781 102.859375 102.859375c6.867188 6.867187 15.886719 10.300781 24.90625 10.300781 9.023438 0 18.042969-3.433594 24.910156-10.300781l29.597657-29.597656c11.453125-11.453126 13.628906-29.148438 5.296875-43.035157zm-259.566406 107.554688-12.519532 12.519531c-2.039062 2.039062-5.355468 2.039062-7.394531 0l-47.40625-47.40625 42.675781-31.515625 25.761719 60.664063c.835937 1.96875.398437 4.222656-1.117187 5.738281zm-215.867188-190.828125 12.472656-12.476563c1.007813-1.003906 2.332032-1.535156 3.6875-1.535156.699219 0 1.402344.140625 2.074219.429687l60.476563 25.996094-31.304688 42.386719-47.40625-47.40625c-1.332031-1.335937-1.53125-2.890625-1.53125-3.699219s.199219-2.363281 1.53125-3.695312zm130.183594 132.210937c-2.085938 1.4375-4.875 1.191407-6.671875-.601562l-51.773438-51.773438c-1.792969-1.796875-2.042969-4.589843-.601562-6.671875 0 0 154.589843-209.3125 154.636719-209.375 21.53125-30.152344 47.558593-61.621094 91.855468-87.523437 34.375-20.101563 75.847656-24.691407 113.785156-12.585938 3.917969 1.25 7.003907 4.335938 8.253907 8.257813 12.105469 37.9375 7.519531 79.40625-12.585938 113.78125-25.902343 44.296875-57.371093 70.324218-87.519531 91.855468-.066406.046876-209.378906 154.636719-209.378906 154.636719zm-61.527344-340.796875c-1.332031-1.332031-1.53125-2.890625-1.53125-3.699218 0-.808594.199219-2.363282 1.53125-3.695313l29.59375-29.597656c1.703125-1.699219 4.328125-2.023438 6.390625-.785157l114.742187 68.847657c-6.414062 7.945312-12.332031 15.902343-17.953124 23.773437l-33.105469 44.824219zm380.269531 313.679688-29.597656 29.597656c-2.039063 2.039062-5.355469 2.039062-7.394531 0l-99.667969-99.667969 44.832031-33.109375c7.867188-5.621094 15.824219-11.535156 23.765625-17.949218l68.847657 114.746093c1.238281 2.058594.914062 4.683594-.785157 6.382813zm0 0"/><path d="m388.773438 99.839844c11.914062 2.589844 21.199218 11.980468 23.65625 23.917968 1.460937 7.09375 7.707031 11.976563 14.675781 11.976563 1.003906 0 2.019531-.101563 3.039062-.3125 8.117188-1.667969 13.339844-9.601563 11.667969-17.714844-4.847656-23.550781-23.164062-42.074219-46.664062-47.179687-8.09375-1.765625-16.085938 3.375-17.84375 11.46875-1.757813 8.09375 3.375 16.085937 11.46875 17.84375zm0 0"/><path d="m214.285156 298.210938c-5.855468-5.855469-15.351562-5.855469-21.210937 0l-42.425781 42.425781c-5.855469 5.859375-5.855469 15.355469 0 21.214843 2.929687 2.929688 6.769531 4.390626 10.609374 4.390626 3.835938 0 7.675782-1.464844 10.605469-4.390626l42.421875-42.425781c5.859375-5.859375 5.859375-15.355469 0-21.214843zm0 0"/></svg>